<mxfile host="app.diagrams.net" modified="2023-08-08T23:22:14.855Z" agent="Mozilla/5.0 (Windows NT 10.0; Win64; x64) AppleWebKit/537.36 (KHTML, like Gecko) Chrome/115.0.0.0 Safari/537.36" etag="JT3YJcoTykP7AA_gaUp0" version="21.6.7" type="device">
  <diagram name="PÃ¡gina-1" id="4zOU3cczQwR7KFCGiZQw">
    <mxGraphModel dx="1313" dy="708" grid="1" gridSize="10" guides="1" tooltips="1" connect="1" arrows="1" fold="1" page="1" pageScale="1" pageWidth="827" pageHeight="1169" math="0" shadow="0">
      <root>
        <mxCell id="0" />
        <mxCell id="1" parent="0" />
        <mxCell id="BHfXAMT36ggq7KmMEio--42" style="edgeStyle=orthogonalEdgeStyle;rounded=0;orthogonalLoop=1;jettySize=auto;html=1;exitX=0.25;exitY=1;exitDx=0;exitDy=0;entryX=0;entryY=0.5;entryDx=0;entryDy=0;" edge="1" parent="1" source="BHfXAMT36ggq7KmMEio--1" target="BHfXAMT36ggq7KmMEio--9">
          <mxGeometry relative="1" as="geometry" />
        </mxCell>
        <mxCell id="BHfXAMT36ggq7KmMEio--43" style="edgeStyle=orthogonalEdgeStyle;rounded=0;orthogonalLoop=1;jettySize=auto;html=1;exitX=0.5;exitY=1;exitDx=0;exitDy=0;entryX=0.013;entryY=0.8;entryDx=0;entryDy=0;entryPerimeter=0;" edge="1" parent="1" source="BHfXAMT36ggq7KmMEio--1" target="BHfXAMT36ggq7KmMEio--8">
          <mxGeometry relative="1" as="geometry">
            <Array as="points">
              <mxPoint x="70" y="320" />
            </Array>
          </mxGeometry>
        </mxCell>
        <mxCell id="BHfXAMT36ggq7KmMEio--44" style="edgeStyle=orthogonalEdgeStyle;rounded=0;orthogonalLoop=1;jettySize=auto;html=1;exitX=0.75;exitY=1;exitDx=0;exitDy=0;entryX=0;entryY=0.5;entryDx=0;entryDy=0;" edge="1" parent="1" source="BHfXAMT36ggq7KmMEio--1" target="BHfXAMT36ggq7KmMEio--7">
          <mxGeometry relative="1" as="geometry" />
        </mxCell>
        <mxCell id="BHfXAMT36ggq7KmMEio--45" style="edgeStyle=orthogonalEdgeStyle;rounded=0;orthogonalLoop=1;jettySize=auto;html=1;exitX=1;exitY=0.5;exitDx=0;exitDy=0;entryX=0;entryY=0.5;entryDx=0;entryDy=0;" edge="1" parent="1" source="BHfXAMT36ggq7KmMEio--1" target="BHfXAMT36ggq7KmMEio--6">
          <mxGeometry relative="1" as="geometry" />
        </mxCell>
        <mxCell id="BHfXAMT36ggq7KmMEio--46" style="edgeStyle=orthogonalEdgeStyle;rounded=0;orthogonalLoop=1;jettySize=auto;html=1;exitX=1;exitY=0;exitDx=0;exitDy=0;entryX=0;entryY=0.5;entryDx=0;entryDy=0;" edge="1" parent="1" source="BHfXAMT36ggq7KmMEio--1" target="BHfXAMT36ggq7KmMEio--5">
          <mxGeometry relative="1" as="geometry" />
        </mxCell>
        <mxCell id="BHfXAMT36ggq7KmMEio--47" style="edgeStyle=orthogonalEdgeStyle;rounded=0;orthogonalLoop=1;jettySize=auto;html=1;exitX=0.75;exitY=0;exitDx=0;exitDy=0;entryX=0;entryY=0.5;entryDx=0;entryDy=0;" edge="1" parent="1" source="BHfXAMT36ggq7KmMEio--1" target="BHfXAMT36ggq7KmMEio--3">
          <mxGeometry relative="1" as="geometry" />
        </mxCell>
        <mxCell id="BHfXAMT36ggq7KmMEio--49" style="edgeStyle=orthogonalEdgeStyle;rounded=0;orthogonalLoop=1;jettySize=auto;html=1;exitX=0.5;exitY=0;exitDx=0;exitDy=0;entryX=0;entryY=0.5;entryDx=0;entryDy=0;" edge="1" parent="1" source="BHfXAMT36ggq7KmMEio--1" target="BHfXAMT36ggq7KmMEio--4">
          <mxGeometry relative="1" as="geometry" />
        </mxCell>
        <mxCell id="BHfXAMT36ggq7KmMEio--1" value="&lt;font style=&quot;vertical-align: inherit;&quot;&gt;&lt;font style=&quot;vertical-align: inherit;&quot;&gt;&lt;font style=&quot;vertical-align: inherit;&quot;&gt;&lt;font style=&quot;vertical-align: inherit;&quot;&gt;Character&lt;/font&gt;&lt;/font&gt;&lt;/font&gt;&lt;/font&gt;" style="rounded=0;whiteSpace=wrap;html=1;" vertex="1" parent="1">
          <mxGeometry x="10" y="200" width="120" height="60" as="geometry" />
        </mxCell>
        <mxCell id="BHfXAMT36ggq7KmMEio--3" value="&lt;font style=&quot;vertical-align: inherit;&quot;&gt;&lt;font style=&quot;vertical-align: inherit;&quot;&gt;Nombre&lt;/font&gt;&lt;/font&gt;" style="ellipse;whiteSpace=wrap;html=1;" vertex="1" parent="1">
          <mxGeometry x="160" y="60" width="75" height="40" as="geometry" />
        </mxCell>
        <mxCell id="BHfXAMT36ggq7KmMEio--4" value="&lt;font style=&quot;vertical-align: inherit;&quot;&gt;&lt;font style=&quot;vertical-align: inherit;&quot;&gt;Id&lt;/font&gt;&lt;/font&gt;" style="ellipse;whiteSpace=wrap;html=1;" vertex="1" parent="1">
          <mxGeometry x="165" y="10" width="65" height="30" as="geometry" />
        </mxCell>
        <mxCell id="BHfXAMT36ggq7KmMEio--5" value="&lt;font style=&quot;vertical-align: inherit;&quot;&gt;&lt;font style=&quot;vertical-align: inherit;&quot;&gt;&lt;font style=&quot;vertical-align: inherit;&quot;&gt;&lt;font style=&quot;vertical-align: inherit;&quot;&gt;&lt;font style=&quot;vertical-align: inherit;&quot;&gt;&lt;font style=&quot;vertical-align: inherit;&quot;&gt;FK Estatus&lt;/font&gt;&lt;/font&gt;&lt;/font&gt;&lt;/font&gt;&lt;/font&gt;&lt;/font&gt;" style="ellipse;whiteSpace=wrap;html=1;" vertex="1" parent="1">
          <mxGeometry x="165" y="110" width="70" height="50" as="geometry" />
        </mxCell>
        <mxCell id="BHfXAMT36ggq7KmMEio--6" value="&lt;font style=&quot;vertical-align: inherit;&quot;&gt;&lt;font style=&quot;vertical-align: inherit;&quot;&gt;gender&lt;/font&gt;&lt;/font&gt;" style="ellipse;whiteSpace=wrap;html=1;" vertex="1" parent="1">
          <mxGeometry x="160" y="170" width="80" height="40" as="geometry" />
        </mxCell>
        <mxCell id="BHfXAMT36ggq7KmMEio--7" value="&lt;font style=&quot;vertical-align: inherit;&quot;&gt;&lt;font style=&quot;vertical-align: inherit;&quot;&gt;&lt;font style=&quot;vertical-align: inherit;&quot;&gt;&lt;font style=&quot;vertical-align: inherit;&quot;&gt;FK origen&lt;/font&gt;&lt;/font&gt;&lt;/font&gt;&lt;/font&gt;" style="ellipse;whiteSpace=wrap;html=1;" vertex="1" parent="1">
          <mxGeometry x="160" y="230" width="90" height="30" as="geometry" />
        </mxCell>
        <mxCell id="BHfXAMT36ggq7KmMEio--8" value="&lt;font style=&quot;vertical-align: inherit;&quot;&gt;&lt;font style=&quot;vertical-align: inherit;&quot;&gt;image&lt;/font&gt;&lt;/font&gt;" style="ellipse;whiteSpace=wrap;html=1;" vertex="1" parent="1">
          <mxGeometry x="148.75" y="280" width="97.5" height="50" as="geometry" />
        </mxCell>
        <mxCell id="BHfXAMT36ggq7KmMEio--11" value="" style="edgeStyle=orthogonalEdgeStyle;rounded=0;orthogonalLoop=1;jettySize=auto;html=1;" edge="1" parent="1" source="BHfXAMT36ggq7KmMEio--9" target="BHfXAMT36ggq7KmMEio--8">
          <mxGeometry relative="1" as="geometry" />
        </mxCell>
        <mxCell id="BHfXAMT36ggq7KmMEio--9" value="&lt;font style=&quot;vertical-align: inherit;&quot;&gt;&lt;font style=&quot;vertical-align: inherit;&quot;&gt;specie&lt;/font&gt;&lt;/font&gt;" style="ellipse;whiteSpace=wrap;html=1;" vertex="1" parent="1">
          <mxGeometry x="160" y="350" width="80" height="50" as="geometry" />
        </mxCell>
        <mxCell id="BHfXAMT36ggq7KmMEio--50" style="edgeStyle=orthogonalEdgeStyle;rounded=0;orthogonalLoop=1;jettySize=auto;html=1;exitX=0.75;exitY=0;exitDx=0;exitDy=0;entryX=0;entryY=0.5;entryDx=0;entryDy=0;" edge="1" parent="1" source="BHfXAMT36ggq7KmMEio--19" target="BHfXAMT36ggq7KmMEio--20">
          <mxGeometry relative="1" as="geometry" />
        </mxCell>
        <mxCell id="BHfXAMT36ggq7KmMEio--51" style="edgeStyle=orthogonalEdgeStyle;rounded=0;orthogonalLoop=1;jettySize=auto;html=1;exitX=1;exitY=0;exitDx=0;exitDy=0;entryX=0.014;entryY=0.25;entryDx=0;entryDy=0;entryPerimeter=0;" edge="1" parent="1" source="BHfXAMT36ggq7KmMEio--19" target="BHfXAMT36ggq7KmMEio--21">
          <mxGeometry relative="1" as="geometry" />
        </mxCell>
        <mxCell id="BHfXAMT36ggq7KmMEio--52" style="edgeStyle=orthogonalEdgeStyle;rounded=0;orthogonalLoop=1;jettySize=auto;html=1;exitX=1;exitY=1;exitDx=0;exitDy=0;entryX=0;entryY=0.5;entryDx=0;entryDy=0;" edge="1" parent="1" source="BHfXAMT36ggq7KmMEio--19" target="BHfXAMT36ggq7KmMEio--22">
          <mxGeometry relative="1" as="geometry" />
        </mxCell>
        <mxCell id="BHfXAMT36ggq7KmMEio--19" value="&lt;font style=&quot;vertical-align: inherit;&quot;&gt;&lt;font style=&quot;vertical-align: inherit;&quot;&gt;status&lt;/font&gt;&lt;/font&gt;" style="rounded=0;whiteSpace=wrap;html=1;" vertex="1" parent="1">
          <mxGeometry x="440" y="110" width="86" height="50" as="geometry" />
        </mxCell>
        <mxCell id="BHfXAMT36ggq7KmMEio--20" value="&lt;font style=&quot;vertical-align: inherit;&quot;&gt;&lt;font style=&quot;vertical-align: inherit;&quot;&gt;vivo&lt;/font&gt;&lt;/font&gt;" style="ellipse;whiteSpace=wrap;html=1;" vertex="1" parent="1">
          <mxGeometry x="610" y="30" width="70" height="30" as="geometry" />
        </mxCell>
        <mxCell id="BHfXAMT36ggq7KmMEio--21" value="&lt;font style=&quot;vertical-align: inherit;&quot;&gt;&lt;font style=&quot;vertical-align: inherit;&quot;&gt;muerto&lt;/font&gt;&lt;/font&gt;" style="ellipse;whiteSpace=wrap;html=1;" vertex="1" parent="1">
          <mxGeometry x="620" y="80" width="70" height="40" as="geometry" />
        </mxCell>
        <mxCell id="BHfXAMT36ggq7KmMEio--22" value="&lt;font style=&quot;vertical-align: inherit;&quot;&gt;&lt;font style=&quot;vertical-align: inherit;&quot;&gt;desconocido&lt;/font&gt;&lt;/font&gt;" style="ellipse;whiteSpace=wrap;html=1;" vertex="1" parent="1">
          <mxGeometry x="615" y="140" width="80" height="50" as="geometry" />
        </mxCell>
        <mxCell id="BHfXAMT36ggq7KmMEio--41" style="edgeStyle=orthogonalEdgeStyle;rounded=0;orthogonalLoop=1;jettySize=auto;html=1;exitX=0;exitY=0.5;exitDx=0;exitDy=0;entryX=1;entryY=0.5;entryDx=0;entryDy=0;" edge="1" parent="1" source="BHfXAMT36ggq7KmMEio--28" target="BHfXAMT36ggq7KmMEio--5">
          <mxGeometry relative="1" as="geometry" />
        </mxCell>
        <mxCell id="BHfXAMT36ggq7KmMEio--67" style="edgeStyle=orthogonalEdgeStyle;rounded=0;orthogonalLoop=1;jettySize=auto;html=1;exitX=1;exitY=0.5;exitDx=0;exitDy=0;entryX=0;entryY=0.5;entryDx=0;entryDy=0;" edge="1" parent="1" source="BHfXAMT36ggq7KmMEio--28" target="BHfXAMT36ggq7KmMEio--19">
          <mxGeometry relative="1" as="geometry" />
        </mxCell>
        <mxCell id="BHfXAMT36ggq7KmMEio--28" value="&lt;font style=&quot;vertical-align: inherit;&quot;&gt;&lt;font style=&quot;vertical-align: inherit;&quot;&gt;1:N&lt;/font&gt;&lt;/font&gt;" style="rhombus;whiteSpace=wrap;html=1;" vertex="1" parent="1">
          <mxGeometry x="300" y="95" width="80" height="80" as="geometry" />
        </mxCell>
        <mxCell id="BHfXAMT36ggq7KmMEio--36" style="edgeStyle=orthogonalEdgeStyle;rounded=0;orthogonalLoop=1;jettySize=auto;html=1;exitX=0;exitY=0.5;exitDx=0;exitDy=0;entryX=1;entryY=0.5;entryDx=0;entryDy=0;" edge="1" parent="1" source="BHfXAMT36ggq7KmMEio--31" target="BHfXAMT36ggq7KmMEio--9">
          <mxGeometry relative="1" as="geometry" />
        </mxCell>
        <mxCell id="BHfXAMT36ggq7KmMEio--37" style="edgeStyle=orthogonalEdgeStyle;rounded=0;orthogonalLoop=1;jettySize=auto;html=1;exitX=1;exitY=0.5;exitDx=0;exitDy=0;entryX=0;entryY=0.75;entryDx=0;entryDy=0;" edge="1" parent="1" source="BHfXAMT36ggq7KmMEio--31" target="BHfXAMT36ggq7KmMEio--32">
          <mxGeometry relative="1" as="geometry" />
        </mxCell>
        <mxCell id="BHfXAMT36ggq7KmMEio--31" value="&lt;font style=&quot;vertical-align: inherit;&quot;&gt;&lt;font style=&quot;vertical-align: inherit;&quot;&gt;&lt;font style=&quot;vertical-align: inherit;&quot;&gt;&lt;font style=&quot;vertical-align: inherit;&quot;&gt;&lt;font style=&quot;vertical-align: inherit;&quot;&gt;&lt;font style=&quot;vertical-align: inherit;&quot;&gt;1:N&lt;/font&gt;&lt;/font&gt;&lt;/font&gt;&lt;/font&gt;&lt;/font&gt;&lt;/font&gt;" style="rhombus;whiteSpace=wrap;html=1;" vertex="1" parent="1">
          <mxGeometry x="330" y="335" width="80" height="80" as="geometry" />
        </mxCell>
        <mxCell id="BHfXAMT36ggq7KmMEio--38" style="edgeStyle=orthogonalEdgeStyle;rounded=0;orthogonalLoop=1;jettySize=auto;html=1;exitX=1;exitY=0;exitDx=0;exitDy=0;entryX=0;entryY=0.267;entryDx=0;entryDy=0;entryPerimeter=0;" edge="1" parent="1" source="BHfXAMT36ggq7KmMEio--32" target="BHfXAMT36ggq7KmMEio--33">
          <mxGeometry relative="1" as="geometry" />
        </mxCell>
        <mxCell id="BHfXAMT36ggq7KmMEio--39" style="edgeStyle=orthogonalEdgeStyle;rounded=0;orthogonalLoop=1;jettySize=auto;html=1;exitX=1;exitY=0.5;exitDx=0;exitDy=0;" edge="1" parent="1" source="BHfXAMT36ggq7KmMEio--32" target="BHfXAMT36ggq7KmMEio--34">
          <mxGeometry relative="1" as="geometry" />
        </mxCell>
        <mxCell id="BHfXAMT36ggq7KmMEio--40" style="edgeStyle=orthogonalEdgeStyle;rounded=0;orthogonalLoop=1;jettySize=auto;html=1;exitX=1;exitY=1;exitDx=0;exitDy=0;entryX=0;entryY=0.5;entryDx=0;entryDy=0;" edge="1" parent="1" source="BHfXAMT36ggq7KmMEio--32" target="BHfXAMT36ggq7KmMEio--35">
          <mxGeometry relative="1" as="geometry" />
        </mxCell>
        <mxCell id="BHfXAMT36ggq7KmMEio--32" value="&lt;font style=&quot;vertical-align: inherit;&quot;&gt;&lt;font style=&quot;vertical-align: inherit;&quot;&gt;species&lt;/font&gt;&lt;/font&gt;" style="rounded=0;whiteSpace=wrap;html=1;" vertex="1" parent="1">
          <mxGeometry x="460" y="340" width="90" height="50" as="geometry" />
        </mxCell>
        <mxCell id="BHfXAMT36ggq7KmMEio--33" value="&lt;font style=&quot;vertical-align: inherit;&quot;&gt;&lt;font style=&quot;vertical-align: inherit;&quot;&gt;humano&lt;/font&gt;&lt;/font&gt;" style="ellipse;whiteSpace=wrap;html=1;" vertex="1" parent="1">
          <mxGeometry x="600" y="300" width="80" height="45" as="geometry" />
        </mxCell>
        <mxCell id="BHfXAMT36ggq7KmMEio--34" value="&lt;font style=&quot;vertical-align: inherit;&quot;&gt;&lt;font style=&quot;vertical-align: inherit;&quot;&gt;alienigena&lt;/font&gt;&lt;/font&gt;" style="ellipse;whiteSpace=wrap;html=1;" vertex="1" parent="1">
          <mxGeometry x="602.5" y="380" width="75" height="40" as="geometry" />
        </mxCell>
        <mxCell id="BHfXAMT36ggq7KmMEio--35" value="&lt;font style=&quot;vertical-align: inherit;&quot;&gt;&lt;font style=&quot;vertical-align: inherit;&quot;&gt;desconocido&lt;/font&gt;&lt;/font&gt;" style="ellipse;whiteSpace=wrap;html=1;" vertex="1" parent="1">
          <mxGeometry x="605" y="470" width="72.5" height="30" as="geometry" />
        </mxCell>
        <mxCell id="BHfXAMT36ggq7KmMEio--60" style="edgeStyle=orthogonalEdgeStyle;rounded=0;orthogonalLoop=1;jettySize=auto;html=1;exitX=1;exitY=0;exitDx=0;exitDy=0;entryX=0.015;entryY=0.167;entryDx=0;entryDy=0;entryPerimeter=0;" edge="1" parent="1" source="BHfXAMT36ggq7KmMEio--53" target="BHfXAMT36ggq7KmMEio--54">
          <mxGeometry relative="1" as="geometry" />
        </mxCell>
        <mxCell id="BHfXAMT36ggq7KmMEio--61" style="edgeStyle=orthogonalEdgeStyle;rounded=0;orthogonalLoop=1;jettySize=auto;html=1;exitX=1;exitY=0.25;exitDx=0;exitDy=0;" edge="1" parent="1" source="BHfXAMT36ggq7KmMEio--53" target="BHfXAMT36ggq7KmMEio--56">
          <mxGeometry relative="1" as="geometry" />
        </mxCell>
        <mxCell id="BHfXAMT36ggq7KmMEio--62" style="edgeStyle=orthogonalEdgeStyle;rounded=0;orthogonalLoop=1;jettySize=auto;html=1;exitX=1;exitY=0.5;exitDx=0;exitDy=0;entryX=0;entryY=1;entryDx=0;entryDy=0;" edge="1" parent="1" source="BHfXAMT36ggq7KmMEio--53" target="BHfXAMT36ggq7KmMEio--57">
          <mxGeometry relative="1" as="geometry" />
        </mxCell>
        <mxCell id="BHfXAMT36ggq7KmMEio--63" style="edgeStyle=orthogonalEdgeStyle;rounded=0;orthogonalLoop=1;jettySize=auto;html=1;exitX=1;exitY=1;exitDx=0;exitDy=0;entryX=0;entryY=0.75;entryDx=0;entryDy=0;entryPerimeter=0;" edge="1" parent="1" source="BHfXAMT36ggq7KmMEio--53" target="BHfXAMT36ggq7KmMEio--59">
          <mxGeometry relative="1" as="geometry" />
        </mxCell>
        <mxCell id="BHfXAMT36ggq7KmMEio--65" style="edgeStyle=orthogonalEdgeStyle;rounded=0;orthogonalLoop=1;jettySize=auto;html=1;exitX=0.25;exitY=0;exitDx=0;exitDy=0;" edge="1" parent="1" source="BHfXAMT36ggq7KmMEio--53" target="BHfXAMT36ggq7KmMEio--64">
          <mxGeometry relative="1" as="geometry" />
        </mxCell>
        <mxCell id="BHfXAMT36ggq7KmMEio--53" value="&lt;font style=&quot;vertical-align: inherit;&quot;&gt;&lt;font style=&quot;vertical-align: inherit;&quot;&gt;User&lt;/font&gt;&lt;/font&gt;" style="rounded=0;whiteSpace=wrap;html=1;" vertex="1" parent="1">
          <mxGeometry x="40" y="600" width="120" height="60" as="geometry" />
        </mxCell>
        <mxCell id="BHfXAMT36ggq7KmMEio--54" value="&lt;font style=&quot;vertical-align: inherit;&quot;&gt;&lt;font style=&quot;vertical-align: inherit;&quot;&gt;Id&lt;/font&gt;&lt;/font&gt;" style="ellipse;whiteSpace=wrap;html=1;" vertex="1" parent="1">
          <mxGeometry x="200" y="500" width="65" height="30" as="geometry" />
        </mxCell>
        <mxCell id="BHfXAMT36ggq7KmMEio--55" value="&lt;font style=&quot;vertical-align: inherit;&quot;&gt;&lt;font style=&quot;vertical-align: inherit;&quot;&gt;Nombre&lt;/font&gt;&lt;/font&gt;" style="ellipse;whiteSpace=wrap;html=1;" vertex="1" parent="1">
          <mxGeometry x="160" y="60" width="75" height="40" as="geometry" />
        </mxCell>
        <mxCell id="BHfXAMT36ggq7KmMEio--56" value="&lt;font style=&quot;vertical-align: inherit;&quot;&gt;&lt;font style=&quot;vertical-align: inherit;&quot;&gt;nickname&lt;/font&gt;&lt;/font&gt;" style="ellipse;whiteSpace=wrap;html=1;" vertex="1" parent="1">
          <mxGeometry x="195" y="560" width="75" height="40" as="geometry" />
        </mxCell>
        <mxCell id="BHfXAMT36ggq7KmMEio--57" value="&lt;font style=&quot;vertical-align: inherit;&quot;&gt;&lt;font style=&quot;vertical-align: inherit;&quot;&gt;Correo&lt;/font&gt;&lt;/font&gt;" style="ellipse;whiteSpace=wrap;html=1;" vertex="1" parent="1">
          <mxGeometry x="195" y="630" width="70" height="40" as="geometry" />
        </mxCell>
        <mxCell id="BHfXAMT36ggq7KmMEio--59" value="&lt;font style=&quot;vertical-align: inherit;&quot;&gt;&lt;font style=&quot;vertical-align: inherit;&quot;&gt;ContraseÃ±a&lt;/font&gt;&lt;/font&gt;" style="ellipse;whiteSpace=wrap;html=1;" vertex="1" parent="1">
          <mxGeometry x="190" y="710" width="75" height="40" as="geometry" />
        </mxCell>
        <mxCell id="BHfXAMT36ggq7KmMEio--66" style="edgeStyle=orthogonalEdgeStyle;rounded=0;orthogonalLoop=1;jettySize=auto;html=1;exitX=0.5;exitY=0;exitDx=0;exitDy=0;entryX=0.058;entryY=0.967;entryDx=0;entryDy=0;entryPerimeter=0;" edge="1" parent="1" target="BHfXAMT36ggq7KmMEio--1">
          <mxGeometry relative="1" as="geometry">
            <mxPoint x="70" y="462" as="sourcePoint" />
            <mxPoint x="19" y="280" as="targetPoint" />
            <Array as="points">
              <mxPoint x="10" y="462" />
              <mxPoint x="10" y="280" />
              <mxPoint x="17" y="280" />
            </Array>
          </mxGeometry>
        </mxCell>
        <mxCell id="BHfXAMT36ggq7KmMEio--64" value="&lt;font style=&quot;vertical-align: inherit;&quot;&gt;&lt;font style=&quot;vertical-align: inherit;&quot;&gt;n:n&lt;/font&gt;&lt;/font&gt;" style="rhombus;whiteSpace=wrap;html=1;" vertex="1" parent="1">
          <mxGeometry x="30" y="445" width="80" height="80" as="geometry" />
        </mxCell>
      </root>
    </mxGraphModel>
  </diagram>
</mxfile>
